<svg xmlns="http://www.w3.org/2000/svg" width="132.97" height="136.63" viewBox="0 0 132.97 136.63">
  <g id="Grupo_100" data-name="Grupo 100" transform="matrix(-0.574, 0.819, -0.819, -0.574, -277.892, 5742.551)">
    <path id="Trazado_106" data-name="Trazado 106" d="M-4522.517,3057.938l1.367,4.859-1.073.3-1.367-4.859Z" transform="translate(-267.11 -103.709)" fill="#053844"/>
    <path id="Trazado_107" data-name="Trazado 107" d="M-4529.3,3094.524a3.857,3.857,0,0,1,1.489-1.569,4.988,4.988,0,0,1,2.3-.658l7.169-.41.077,1.351-7.232.414a3.374,3.374,0,0,0-2.208.86,2.593,2.593,0,0,0-.746,2.148,2.62,2.62,0,0,0,.986,2.057,3.353,3.353,0,0,0,2.292.61l7.233-.414.077,1.335-7.17.41a5.227,5.227,0,0,1-2.365-.367,3.655,3.655,0,0,1-1.657-1.356,4.342,4.342,0,0,1-.685-2.2A4.205,4.205,0,0,1-4529.3,3094.524Z" transform="translate(-262.847 -127.202)" fill="#053844"/>
    <path id="Trazado_108" data-name="Trazado 108" d="M-4519.727,3128.239l-.229,1.641-9.78,4.407-.008.063,2.185.241,6.812.95-.187,1.341-11.292-1.576.194-1.388,10.242-4.616.009-.063-2.186-.241-7.239-1.01.186-1.325Z" transform="translate(-261.135 -151.267)" fill="#053844"/>
    <path id="Trazado_109" data-name="Trazado 109" d="M-4524.327,3164.591l-.363,1.288-10.973-3.1.362-1.288Z" transform="translate(-258.755 -175.371)" fill="#053844"/>
    <path id="Trazado_110" data-name="Trazado 110" d="M-4531.2,3177.156l-1.367,3.156a6.2,6.2,0,0,1-1.88,2.518,4.986,4.986,0,0,1-2.646,1.041,6.107,6.107,0,0,1-3-.534,6.117,6.117,0,0,1-2.44-1.82,5,5,0,0,1-1.05-2.642,6.194,6.194,0,0,1,.55-3.094l1.367-3.156Zm-10.645-.862a4.388,4.388,0,0,0-.209,3.406,4.342,4.342,0,0,0,2.51,2.38,4.34,4.34,0,0,0,3.452.2,4.4,4.4,0,0,0,2.342-2.483l.835-1.929-8.095-3.506Z" transform="translate(-253.259 -183.074)" fill="#053844"/>
    <path id="Trazado_111" data-name="Trazado 111" d="M-4562.236,3210.188a5.749,5.749,0,0,1,2.981-.435,6.033,6.033,0,0,1,2.877,1.143,6.036,6.036,0,0,1,1.975,2.376,5.715,5.715,0,0,1,.52,2.973,5.715,5.715,0,0,1-1.1,2.878,5.711,5.711,0,0,1-2.392,1.943,5.777,5.777,0,0,1-2.992.437,5.99,5.99,0,0,1-2.877-1.132,6.037,6.037,0,0,1-1.982-2.381,5.722,5.722,0,0,1-.508-2.975,5.752,5.752,0,0,1,1.109-2.885A5.718,5.718,0,0,1-4562.236,3210.188Zm-2.188,4.876a4.343,4.343,0,0,0,.387,2.287,4.824,4.824,0,0,0,1.6,1.9,4.826,4.826,0,0,0,2.3.933,4.348,4.348,0,0,0,2.294-.343,4.4,4.4,0,0,0,1.806-1.474,4.352,4.352,0,0,0,.835-2.168,4.412,4.412,0,0,0-.393-2.292,4.79,4.79,0,0,0-1.592-1.9,4.783,4.783,0,0,0-2.3-.922,4.4,4.4,0,0,0-2.3.338,4.367,4.367,0,0,0-1.8,1.467A4.406,4.406,0,0,0-4564.424,3215.064Z" transform="translate(-237.925 -208.739)" fill="#053844"/>
    <path id="Trazado_112" data-name="Trazado 112" d="M-4585.322,3239.335a4.089,4.089,0,0,1,2.667.64l-.593,1.261a3.316,3.316,0,0,0-1.87-.551,2.5,2.5,0,0,0-1.708.684,2.638,2.638,0,0,0-.868,1.524,1.745,1.745,0,0,0,.482,1.536,1.681,1.681,0,0,0,1.318.573,5.641,5.641,0,0,0,2.051-.579l.7-.3a5.7,5.7,0,0,1,2.219-.505,2.5,2.5,0,0,1,1.877.912,2.722,2.722,0,0,1,.691,1.409,3.188,3.188,0,0,1-.165,1.655,3.794,3.794,0,0,1-1.032,1.513,3.8,3.8,0,0,1-1.513.9,3.6,3.6,0,0,1-1.465.137,3.35,3.35,0,0,1-1.151-.347l.57-1.261a2.124,2.124,0,0,0,1.255.293,2.228,2.228,0,0,0,1.42-.656,2.329,2.329,0,0,0,.767-1.376,1.525,1.525,0,0,0-.384-1.334,1.337,1.337,0,0,0-1.126-.447,5.393,5.393,0,0,0-1.7.5l-.723.319a6.282,6.282,0,0,1-2.555.565,2.846,2.846,0,0,1-2.047-1.026,2.979,2.979,0,0,1-.836-1.742,3.333,3.333,0,0,1,.305-1.774,4.649,4.649,0,0,1,1.063-1.455A4.069,4.069,0,0,1-4585.322,3239.335Z" transform="translate(-221.802 -229.22)" fill="#053844"/>
    <path id="Trazado_113" data-name="Trazado 113" d="M-4607.352,3271.215l-3.339,1.891a3.722,3.722,0,0,1-1.75.5,3.371,3.371,0,0,1-1.722-.406,3.208,3.208,0,0,1-1.281-1.278,3.21,3.21,0,0,1-.437-1.757,3.38,3.38,0,0,1,.537-1.686,3.718,3.718,0,0,1,1.327-1.245l2.175-1.232-2.29-4.046,1.163-.659Zm-6.058-2.847a2.074,2.074,0,0,0-.827.816,2.171,2.171,0,0,0-.274,1.052,2.008,2.008,0,0,0,.258,1.006,2.009,2.009,0,0,0,.729.74,2.178,2.178,0,0,0,1.043.306,2.079,2.079,0,0,0,1.126-.289l2.2-1.248-2.056-3.63Z" transform="translate(-203.241 -244.434)" fill="#053844"/>
    <path id="Trazado_114" data-name="Trazado 114" d="M-4652.959,3278.647a5.733,5.733,0,0,1,2.673,1.39,6.012,6.012,0,0,1,1.666,2.611,6.044,6.044,0,0,1,.213,3.082,5.722,5.722,0,0,1-1.317,2.715,5.716,5.716,0,0,1-2.578,1.689,5.715,5.715,0,0,1-3.077.177,5.79,5.79,0,0,1-2.683-1.4,6.011,6.011,0,0,1-1.671-2.6,6.026,6.026,0,0,1-.215-3.09,5.716,5.716,0,0,1,1.327-2.71,5.76,5.76,0,0,1,2.585-1.692A5.712,5.712,0,0,1-4652.959,3278.647Zm-4.625,2.675a4.355,4.355,0,0,0-1.023,2.082,4.835,4.835,0,0,0,.189,2.479,4.834,4.834,0,0,0,1.323,2.1,4.355,4.355,0,0,0,2.062,1.063,4.4,4.4,0,0,0,2.327-.139,4.365,4.365,0,0,0,1.945-1.271,4.4,4.4,0,0,0,1.021-2.09,4.8,4.8,0,0,0-.178-2.473,4.792,4.792,0,0,0-1.329-2.094,4.4,4.4,0,0,0-2.063-1.071,4.355,4.355,0,0,0-2.319.137A4.405,4.405,0,0,0-4657.585,3281.322Z" transform="translate(-172.671 -256.351)" fill="#053844"/>
    <path id="Trazado_115" data-name="Trazado 115" d="M-4685.784,3297.844l-3.826.45a3.682,3.682,0,0,1-1.79-.222,3.36,3.36,0,0,1-1.429-1.042,3.211,3.211,0,0,1-.687-1.675,3.133,3.133,0,0,1,.183-1.513,3.3,3.3,0,0,1,.846-1.254,3.534,3.534,0,0,1,1.311-.78l.026-.051-3.74-4.258-.008-.063,1.581-.186,3.628,4.255,1.787-.21-.543-4.618,1.329-.156Zm-4.39-5.015a2.349,2.349,0,0,0-1.068.4,2.147,2.147,0,0,0-.734.848,2,2,0,0,0-.181,1.119,2.031,2.031,0,0,0,.386.965,2.18,2.18,0,0,0,.843.687,2.083,2.083,0,0,0,1.151.169l2.514-.3-.492-4.175Z" transform="translate(-148.562 -261.893)" fill="#053844"/>
    <path id="Trazado_116" data-name="Trazado 116" d="M-4729.1,3298.106l3.184.32-.128,1.283-7.7-.773.128-1.283,3.17.318,1.008-10.061,1.346.135Z" transform="translate(-121.677 -262.854)" fill="#053844"/>
    <path id="Trazado_117" data-name="Trazado 117" d="M-4760.409,3282.584a3.846,3.846,0,0,1,1.005,1.916,4.978,4.978,0,0,1-.118,2.388l-1.922,6.92-1.3-.362,1.938-6.981a3.365,3.365,0,0,0-.1-2.367,2.6,2.6,0,0,0-1.794-1.4,2.62,2.62,0,0,0-2.265.272,3.353,3.353,0,0,0-1.317,1.972l-1.938,6.982-1.289-.358,1.922-6.92a5.252,5.252,0,0,1,1.109-2.122,3.669,3.669,0,0,1,1.818-1.131,4.336,4.336,0,0,1,2.3.062A4.2,4.2,0,0,1-4760.409,3282.584Z" transform="translate(-96.926 -258.256)" fill="#053844"/>
    <path id="Trazado_118" data-name="Trazado 118" d="M-4807.361,3278.846l-1.309-.727,1.548-8.593.214-1.174-.056-.03-.9.795-6.588,5.795-1.308-.726,9.182-7.943,1.225.681Z" transform="translate(-64.926 -247.858)" fill="#053844"/>
    <path id="Trazado_119" data-name="Trazado 119" d="M-4824.764,3264.375l-1.078-.791,6.74-9.2,1.078.791Z" transform="translate(-57.946 -239.656)" fill="#053844"/>
    <path id="Trazado_120" data-name="Trazado 120" d="M-4836.551,3242.137a4.087,4.087,0,0,1-.429,2.708l-1.3-.492a3.318,3.318,0,0,0,.4-1.908,2.5,2.5,0,0,0-.816-1.649,2.64,2.64,0,0,0-1.588-.748,1.75,1.75,0,0,0-1.494.6,1.681,1.681,0,0,0-.468,1.358,5.65,5.65,0,0,0,.739,2l.352.675a5.7,5.7,0,0,1,.677,2.172,2.5,2.5,0,0,1-.761,1.944,2.734,2.734,0,0,1-1.351.8,3.2,3.2,0,0,1-1.663-.035,3.8,3.8,0,0,1-1.588-.91,3.807,3.807,0,0,1-1.011-1.438,3.592,3.592,0,0,1-.251-1.45,3.335,3.335,0,0,1,.255-1.176l1.3.47a2.134,2.134,0,0,0-.195,1.275,2.226,2.226,0,0,0,.766,1.363,2.328,2.328,0,0,0,1.433.657,1.525,1.525,0,0,0,1.3-.488,1.337,1.337,0,0,0,.357-1.157,5.375,5.375,0,0,0-.631-1.661l-.375-.7a6.292,6.292,0,0,1-.763-2.5,2.843,2.843,0,0,1,.863-2.122,2.971,2.971,0,0,1,1.671-.969,3.329,3.329,0,0,1,1.792.165,4.64,4.64,0,0,1,1.533.946A4.073,4.073,0,0,1-4836.551,3242.137Z" transform="translate(-43.23 -228.805)" fill="#053844"/>
    <path id="Trazado_121" data-name="Trazado 121" d="M-4859.826,3235.583l-.868-1.016,8.67-7.4.869,1.017Z" transform="translate(-33.828 -220.816)" fill="#053844"/>
    <path id="Trazado_122" data-name="Trazado 122" d="M-4888,3208.891l-.783-1.257,2.315-.109.622,1Zm13.406-4.558a5.737,5.737,0,0,1-.72,2.925,6.035,6.035,0,0,1-2.145,2.235,6.038,6.038,0,0,1-2.945.934,5.722,5.722,0,0,1-2.95-.64,5.708,5.708,0,0,1-2.25-2.107,5.709,5.709,0,0,1-.9-2.948,5.781,5.781,0,0,1,.723-2.936,6,6,0,0,1,2.133-2.238,6.034,6.034,0,0,1,2.952-.938,5.718,5.718,0,0,1,2.947.651,5.739,5.739,0,0,1,2.255,2.114A5.709,5.709,0,0,1-4874.594,3204.333Zm-3.691-3.864a4.346,4.346,0,0,0-2.264-.5,4.823,4.823,0,0,0-2.363.768,4.821,4.821,0,0,0-1.733,1.782,4.353,4.353,0,0,0-.548,2.254,4.414,4.414,0,0,0,.684,2.229,4.363,4.363,0,0,0,1.693,1.59,4.412,4.412,0,0,0,2.272.5,4.778,4.778,0,0,0,2.36-.758,4.773,4.773,0,0,0,1.722-1.784,4.411,4.411,0,0,0,.554-2.259,4.364,4.364,0,0,0-.68-2.221A4.4,4.4,0,0,0-4878.285,3200.469Z" transform="translate(-14.389 -201.058)" fill="#053844"/>
    <path id="Trazado_123" data-name="Trazado 123" d="M-4899.354,3172.771l-.551-1.562,6.661-8.408-.021-.06-2.051.79-6.489,2.286-.449-1.276,10.753-3.789.465,1.322-6.977,8.807.021.059,2.051-.79,6.893-2.429.445,1.262Z" transform="translate(-5.067 -174.858)" fill="#053844"/>
    <path id="Trazado_124" data-name="Trazado 124" d="M-4889.479,3134.076l-.547-5.019,1.108-.12.546,5.018Z" transform="translate(-13.529 -152.841)" fill="#053844"/>
    <path id="Trazado_125" data-name="Trazado 125" d="M-4909.576,3086.427l.163-1.327,4.9.6.719-5.848-4.9-.6.163-1.327,11.317,1.392-.163,1.328-5.152-.634-.72,5.847,5.152.634-.163,1.327Z" transform="translate(0 -117.539)" fill="#053844"/>
    <path id="Trazado_126" data-name="Trazado 126" d="M-4903.035,3050.8l1.955-6.3,1.232.382-1.559,5.019,3.6,1.119,1.407-4.532,1.216.378-1.407,4.532,3.6,1.119,1.559-5.018,1.232.383-1.956,6.3Z" transform="translate(-4.527 -94.41)" fill="#053844"/>
    <path id="Trazado_127" data-name="Trazado 127" d="M-4892.312,3015.779l.764-1.469,10.689-.889.029-.057-1.979-.956-6.1-3.171.624-1.2,10.118,5.256-.646,1.243-11.2.931-.03.056,1.98.956,6.485,3.37-.615,1.188Z" transform="translate(-11.947 -69.175)" fill="#053844"/>
    <path id="Trazado_128" data-name="Trazado 128" d="M-4871.619,2982.051l.832-1.048,4.7,3.731.04-.05-1.506-7.76,1.078-1.36.05.04,1.195,6.334,7.825.436.049.039-1.019,1.285-6.61-.406.506,2.719,2.619,2.079-.831,1.047Z" transform="translate(-26.267 -46.704)" fill="#053844"/>
    <path id="Trazado_129" data-name="Trazado 129" d="M-4835.6,2964.132a5.731,5.731,0,0,1-3-.3,6.035,6.035,0,0,1-2.52-1.8,6.04,6.04,0,0,1-1.344-2.782,5.709,5.709,0,0,1,.211-3.01,5.7,5.7,0,0,1,1.763-2.528,5.714,5.714,0,0,1,2.791-1.31,5.783,5.783,0,0,1,3.009.3,6,6,0,0,1,2.519,1.792,6.028,6.028,0,0,1,1.35,2.787,5.709,5.709,0,0,1-.223,3.01,5.759,5.759,0,0,1-1.77,2.533A5.71,5.71,0,0,1-4835.6,2964.132Zm3.3-4.2a4.362,4.362,0,0,0,.175-2.313,4.821,4.821,0,0,0-1.1-2.23,4.831,4.831,0,0,0-2.01-1.46,4.347,4.347,0,0,0-2.311-.219,4.4,4.4,0,0,0-2.106.995,4.356,4.356,0,0,0-1.333,1.9,4.4,4.4,0,0,0-.169,2.319,4.786,4.786,0,0,0,1.086,2.229,4.8,4.8,0,0,0,2.012,1.449,4.415,4.415,0,0,0,2.315.226,4.359,4.359,0,0,0,2.1-.99A4.395,4.395,0,0,0-4832.308,2959.927Z" transform="translate(-46.366 -30.622)" fill="#053844"/>
    <path id="Trazado_130" data-name="Trazado 130" d="M-4798.137,2927.7l3.5-1.616a3.68,3.68,0,0,1,1.771-.345,3.367,3.367,0,0,1,1.682.547,3.209,3.209,0,0,1,1.172,1.379,3.157,3.157,0,0,1,.3,1.494,3.311,3.311,0,0,1-.416,1.456,3.545,3.545,0,0,1-1.005,1.148l-.008.057,4.877,2.886.026.058-1.446.668-4.768-2.918-1.634.754,1.95,4.221-1.214.561Zm5.73,3.4a2.356,2.356,0,0,0,.892-.71,2.154,2.154,0,0,0,.435-1.034,1.988,1.988,0,0,0-.176-1.121,2,2,0,0,0-.667-.8,2.165,2.165,0,0,0-1.014-.391,2.078,2.078,0,0,0-1.146.2l-2.3,1.062,1.764,3.816Z" transform="translate(-77.118 -12.217)" fill="#053844"/>
    <path id="Trazado_131" data-name="Trazado 131" d="M-4766.061,2914.548l6.352-1.765.346,1.243-5.063,1.407,1.01,3.635,4.573-1.27.341,1.227-4.572,1.271,1.011,3.636,5.063-1.407.346,1.242-6.353,1.766Z" transform="translate(-99.315 -3.258)" fill="#053844"/>
    <path id="Trazado_132" data-name="Trazado 132" d="M-4730.2,2909.059l1.521-.147,5.41,10.931-1.475.143-1.443-3.012-4.9.474-.839,3.233-1.474.143Zm3.432,6.691-1.9-3.944-.577-1.176-.063.007-.326,1.263-1.11,4.235Z" transform="translate(-121.922 -0.58)" fill="#053844"/>
    <path id="Trazado_133" data-name="Trazado 133" d="M-4696.223,2908.075l1.333.1-.737,10.085,4.987.365-.094,1.286-6.321-.462Z" transform="translate(-147.069)" fill="#053844"/>
    <path id="Trazado_134" data-name="Trazado 134" d="M-4657.692,2914.079l6.315,1.9-.371,1.235-5.034-1.511-1.084,3.615,4.544,1.364-.366,1.221-4.544-1.364-1.085,3.615,5.033,1.511-.371,1.235-6.314-1.9Z" transform="translate(-172.04 -4.155)" fill="#053844"/>
    <path id="Trazado_135" data-name="Trazado 135" d="M-4633.285,2936.16a4.091,4.091,0,0,1-.39-2.715l1.39.086a3.319,3.319,0,0,0,.179,1.941,2.5,2.5,0,0,0,1.267,1.334,2.634,2.634,0,0,0,1.738.245,1.748,1.748,0,0,0,1.249-1.016,1.684,1.684,0,0,0,.046-1.436,5.665,5.665,0,0,0-1.3-1.693l-.536-.54a5.715,5.715,0,0,1-1.289-1.875,2.5,2.5,0,0,1,.153-2.082,2.724,2.724,0,0,1,1.055-1.163,3.186,3.186,0,0,1,1.6-.459,3.808,3.808,0,0,1,1.788.4,3.805,3.805,0,0,1,1.391,1.076,3.587,3.587,0,0,1,.667,1.311,3.33,3.33,0,0,1,.1,1.2l-1.383-.064a2.128,2.128,0,0,0-.189-1.275,2.231,2.231,0,0,0-1.135-1.076,2.333,2.333,0,0,0-1.563-.2,1.523,1.523,0,0,0-1.1.85,1.332,1.332,0,0,0,0,1.21,5.4,5.4,0,0,0,1.094,1.4l.563.554a6.273,6.273,0,0,1,1.468,2.164,2.845,2.845,0,0,1-.2,2.282,2.978,2.978,0,0,1-1.311,1.419,3.327,3.327,0,0,1-1.76.372,4.639,4.639,0,0,1-1.745-.451A4.07,4.07,0,0,1-4633.285,2936.16Z" transform="translate(-190.877 -12.948)" fill="#053844"/>
    <path id="Trazado_136" data-name="Trazado 136" d="M-4598.958,2940.879l-2.635-1.816.732-1.062,6.373,4.391-.732,1.062-2.622-1.807-5.738,8.327-1.114-.769Z" transform="translate(-210.984 -20.71)" fill="#053844"/>
    <path id="Trazado_137" data-name="Trazado 137" d="M-4583.338,2963.695l1.109,1.052-4.7,11.255-1.075-1.019,1.327-3.065-3.571-3.385-2.991,1.488-1.074-1.018Zm-2.8,6.98,1.728-4.022.509-1.208-.046-.043-1.167.583-3.924,1.941Z" transform="translate(-218.168 -38.49)" fill="#053844"/>
    <path id="Trazado_138" data-name="Trazado 138" d="M-4557.924,2982.655l-1.957-2.533,1.021-.789,4.729,6.125-1.021.788-1.946-2.52-8,6.18-.826-1.072Z" transform="translate(-237.812 -49.312)" fill="#053844"/>
    <path id="Trazado_139" data-name="Trazado 139" d="M-4544.791,3007.64l3.173,5.779-1.131.621-2.528-4.606-3.308,1.816,2.283,4.159-1.117.613-2.283-4.159-3.308,1.816,2.528,4.606-1.13.621-3.173-5.779Z" transform="translate(-245.522 -68.901)" fill="#053844"/>
  </g>
</svg>
