<svg xmlns="http://www.w3.org/2000/svg" width="38.001" height="38.001" viewBox="0 0 38.001 38.001">
  <g id="start-up" transform="translate(-0.001 -0.001)">
    <path id="Trazado_51" data-name="Trazado 51" d="M73.267,285.21a1.114,1.114,0,0,0,.208,1.287l.272.272c.787-.932,1.7-1.944,2.815-3.055.079-.079.159-.117.238-.189l-1.751-1.752C74.031,283.615,73.437,284.873,73.267,285.21Zm0,0" transform="translate(-67.719 -260.859)" fill="#ff6b11"/>
    <path id="Trazado_52" data-name="Trazado 52" d="M165.941,389.8c-1.114,1.115-2.123,2.033-3.05,2.82l.369.369a1.113,1.113,0,0,0,1.3.2c.577-.3,1.484-.724,3.409-1.8l-1.834-1.834C166.058,389.642,166.02,389.722,165.941,389.8Zm0,0" transform="translate(-150.8 -360.648)" fill="#ff6b11"/>
    <path id="Trazado_53" data-name="Trazado 53" d="M69.712,311.645c-.8-.8-3.067-.083-4.13.979A29.607,29.607,0,0,0,59.7,320.19a1.113,1.113,0,0,0,1.488,1.487c1.455-.707,3.945-2.3,7.543-5.9,1.169-1.169,1.745-3.364.982-4.128Zm0,0" transform="translate(-55.165 -288.195)" fill="#ff6b11"/>
    <path id="Trazado_54" data-name="Trazado 54" d="M3.476,166.45.327,169.6A1.113,1.113,0,0,0,1.4,171.462a9.149,9.149,0,0,1,4.208-.391,59.743,59.743,0,0,1,4.609-7.031C9.274,163.435,6.154,163.772,3.476,166.45Zm0,0" transform="translate(0 -151.626)" fill="#ff6b11"/>
    <path id="Trazado_55" data-name="Trazado 55" d="M246.252,386.43a1.111,1.111,0,0,0,1.288-.207l3.149-3.149c2.438-2.439,2.867-5.585,2.314-6.582a63.55,63.55,0,0,1-7.036,4.574c.155.876.052,1.726-.315,4.207A1.111,1.111,0,0,0,246.252,386.43Zm0,0" transform="translate(-227.408 -348.548)" fill="#ff6b11"/>
    <path id="Trazado_56" data-name="Trazado 56" d="M285.62,138.285a3.34,3.34,0,1,0,4.723,0A3.344,3.344,0,0,0,285.62,138.285Zm0,0" transform="translate(-263.516 -127.116)" fill="#ff6b11"/>
    <path id="Trazado_57" data-name="Trazado 57" d="M396.928,1.087A1.112,1.112,0,0,0,395.9.06a22.009,22.009,0,0,0-8.127.947,9.347,9.347,0,0,0,2.769,5.438,9.317,9.317,0,0,0,5.545,2.764,23.022,23.022,0,0,0,.841-8.123Zm0,0" transform="translate(-358.992 0)" fill="#ff6b11"/>
    <path id="Trazado_58" data-name="Trazado 58" d="M135.829,30.234A11.7,11.7,0,0,1,132.482,24C125.8,26.738,119.4,32.725,114.34,41.137l2.512,2.512c1.717-.7,3.8-.881,5.122.44s1.136,3.407.439,5.121l2.6,2.6c6.472-3.9,14.006-10.045,17.21-18.221A11.64,11.64,0,0,1,135.829,30.234Zm-1.575,9.447a5.566,5.566,0,1,1,0-7.872A5.573,5.573,0,0,1,134.254,39.681Zm0,0" transform="translate(-105.853 -22.214)" fill="#ff6b11"/>
  </g>
</svg>
