<svg xmlns="http://www.w3.org/2000/svg" width="33.2" height="27.667" viewBox="0 0 33.2 27.667">
  <g id="suitcase" transform="translate(0 -2)">
    <path id="Trazado_59" data-name="Trazado 59" d="M17.683,8.225A1.384,1.384,0,0,1,16.3,6.842V4.767H10.767V6.842A1.383,1.383,0,1,1,8,6.842V4.767A2.769,2.769,0,0,1,10.767,2H16.3a2.769,2.769,0,0,1,2.767,2.767V6.842A1.384,1.384,0,0,1,17.683,8.225Z" transform="translate(3.067)" fill="#ff6b11"/>
    <path id="Trazado_60" data-name="Trazado 60" d="M17.582,16.821a2.849,2.849,0,0,1-.982.166,3.031,3.031,0,0,1-1.065-.194L0,11.62V22.175a3.8,3.8,0,0,0,3.8,3.8H29.4a3.8,3.8,0,0,0,3.8-3.8V11.62Z" transform="translate(0 3.688)" fill="#ff6b11"/>
    <path id="Trazado_61" data-name="Trazado 61" d="M33.2,8.8v3.168L16.932,17.395a1.024,1.024,0,0,1-.664,0L0,11.972V8.8A3.8,3.8,0,0,1,3.8,5H29.4A3.8,3.8,0,0,1,33.2,8.8Z" transform="translate(0 1.15)" fill="#ff6b11"/>
  </g>
</svg>
